<svg width="41" height="41" viewBox="0 0 41 41" fill="none" xmlns="http://www.w3.org/2000/svg">
<g clip-path="url(#clip0)">
<path d="M37.4121 0L15.1184 24.5359L8.64805 19.6031H5.06055L15.1184 35.9391L40.9996 0H37.4121Z" fill="#510000"/>
<path d="M34.5297 35.9391C34.5297 36.3235 34.2094 36.6438 33.825 36.6438H5.06094C4.67656 36.6438 4.35625 36.3235 4.35625 35.9391V7.17504C4.35625 6.79066 4.67656 6.47035 5.06094 6.47035H24.7281L28.6359 2.17816H1.40938C0.640625 2.17816 0 2.81879 0 3.58754V39.5266C0 40.3594 0.640625 41 1.40938 41H37.3484C38.1172 41 38.7578 40.3594 38.7578 39.5907V11.5953L34.4656 17.6172C34.5297 17.6172 34.5297 35.9391 34.5297 35.9391Z" fill="#3E4347"/>
</g>
<defs>
<clipPath id="clip0">
<rect width="41" height="41" fill="white"/>
</clipPath>
</defs>
</svg>
