<svg width="79" height="79" viewBox="0 0 79 79" fill="none" xmlns="http://www.w3.org/2000/svg">
<path d="M39.5 0L73.708 19.75V59.25L39.5 79L5.292 59.25V19.75L39.5 0Z" fill="#510000"/>
<path d="M32.6527 58.35H46.3027V56.9C43.4527 56.75 43.2527 56.7 42.6527 56.2C41.9527 55.6 41.7527 54.6 41.7527 51.25V36.4C41.7527 30.5 41.9027 26.25 42.1527 22.3C39.7027 22.9 36.4527 23.35 32.6527 23.6V25.05H34.5527C35.8027 25.05 36.4027 25.15 36.8027 25.5C37.2027 25.85 37.2027 25.85 37.3027 30.2V51.25C37.3027 54.85 37.0527 55.9 35.9527 56.4C35.3027 56.7 34.8027 56.75 32.6527 56.9V58.35Z" fill="white"/>
</svg>
