<svg width="79" height="79" viewBox="0 0 79 79" fill="none" xmlns="http://www.w3.org/2000/svg">
<path d="M39.5 0L73.708 19.75V59.25L39.5 79L5.292 59.25V19.75L39.5 0Z" fill="#510000"/>
<path d="M50.2027 58.35L51.5527 49.65L50.0527 49.3C49.0527 53.5 47.8027 54.6 44.2027 54.6H29.7527C30.6527 51.95 31.6527 50.4 33.8527 48.25C36.0527 46.1 37.4027 45.1 43.6527 41.25C49.2027 37.85 51.0527 35.3 51.0527 31.15C51.0527 28.85 50.5527 27.3 49.4527 25.85C47.5527 23.45 44.0527 22.1 39.8527 22.1C33.1527 22.1 28.1527 25.95 28.1527 31.1C28.1527 32.55 28.8527 33.15 30.7027 33.15C32.4527 33.15 33.0027 32.7 33.1027 31C33.2027 29.05 33.3027 28.35 33.6027 27.35C34.4527 24.85 36.6027 23.45 39.5527 23.45C43.6027 23.45 46.3527 26.3 46.3527 30.5C46.3527 32 46.0027 33.4 45.2527 34.7C44.5527 35.85 43.5027 36.95 41.4527 38.6C35.0527 43.8 32.9527 45.8 31.0027 48.6C28.9527 51.45 27.9027 54.3 27.3027 58.35H50.2027Z" fill="white"/>
</svg>
