<svg width="79" height="79" viewBox="0 0 79 79" fill="none" xmlns="http://www.w3.org/2000/svg">
<path d="M39.5 0L73.708 19.75V59.25L39.5 79L5.292 59.25V19.75L39.5 0Z" fill="#510000"/>
<path d="M40.9527 39.3C43.2027 38.85 44.5527 38.4 45.9527 37.65C48.5027 36.15 50.0527 33.65 50.0527 30.85C50.0527 25.8 45.4027 22.1 39.0527 22.1C33.1027 22.1 28.1527 25.65 28.1527 29.9C28.1527 31.25 28.9527 31.8 30.8027 31.8C32.5527 31.8 33.0027 31.3 33.1027 29.4C33.3527 25.4 35.2527 23.45 39.0027 23.45C41.5027 23.45 43.1527 24.25 44.2027 25.95C45.0027 27.25 45.4527 29 45.4527 30.95C45.4527 33.8 44.4527 36.05 42.6027 37.3C41.1527 38.25 39.1527 38.8 37.1527 38.8H34.9527V40.4H37.1527C39.4027 40.4 41.5027 40.85 42.9527 41.6C45.1027 42.75 46.3027 45.35 46.3027 48.85C46.3027 54.5 43.4027 57.8 38.4527 57.8C36.2527 57.8 34.5027 57.15 33.5027 55.95C32.6027 54.85 32.3527 53.9 32.2527 51.45C32.1527 50.05 31.6027 49.55 30.1527 49.55C28.2027 49.55 27.3027 50.3 27.3027 51.9C27.3027 56.05 32.1527 59.15 38.6527 59.15C46.1027 59.15 51.0527 55.05 51.0527 48.9C51.0527 45.45 49.4027 42.65 46.5527 41.15C44.9527 40.35 43.4527 39.95 40.9527 39.75V39.3Z" fill="white"/>
</svg>
