<svg width="51" height="51" viewBox="0 0 51 51" fill="none" xmlns="http://www.w3.org/2000/svg">
<path d="M46.2179 12.6654C44.6938 13.3228 43.0354 13.7959 41.327 13.9802C43.1007 12.9265 44.4288 11.2619 45.0624 9.29856C43.3981 10.2886 41.5748 10.9829 39.6735 11.3505C38.8789 10.501 37.9178 9.82419 36.8501 9.36234C35.7825 8.90049 34.6311 8.66347 33.4679 8.66604C28.7613 8.66604 24.9762 12.4811 24.9762 17.1627C24.9762 17.8201 25.0559 18.4776 25.1854 19.1101C18.138 18.7415 11.8526 15.3747 7.67402 10.2199C6.91264 11.5204 6.51364 13.0012 6.51855 14.5081C6.51855 17.4566 8.01768 20.0564 10.3037 21.5854C8.95652 21.5323 7.64087 21.162 6.46377 20.5046V20.6092C6.46377 24.738 9.38232 28.1596 13.2721 28.9465C12.5417 29.1362 11.7904 29.2333 11.0358 29.2354C10.483 29.2354 9.96006 29.1806 9.43213 29.1059C10.5079 32.4727 13.6406 34.9181 17.371 34.9978C14.4524 37.2838 10.7968 38.6285 6.82734 38.6285C6.11514 38.6285 5.45771 38.6036 4.77539 38.5239C8.54062 40.9395 13.0081 42.334 17.8192 42.334C33.438 42.334 41.9845 29.3947 41.9845 18.1638C41.9845 17.7952 41.9845 17.4267 41.9596 17.0581C43.6131 15.8479 45.0624 14.3488 46.2179 12.6654Z" fill="white"/>
</svg>
